<svg xmlns="http://www.w3.org/2000/svg" viewBox="0 0 505.47 140.9"><defs><style>.cls-1{fill:#c1b710;}.cls-2{fill:#fff;}</style></defs><title>Ресурс 6</title><g id="Шар_2" data-name="Шар 2"><g id="Слой_1" data-name="Слой 1"><path class="cls-1" d="M267.4,86.56a2.68,2.68,0,0,1-2.68-2.68v-21a2.68,2.68,0,0,1,4.09-2.28l15.93,9.89a2.68,2.68,0,0,1,.12,4.47L268.94,86.08A2.68,2.68,0,0,1,267.4,86.56Z"/><path class="cls-1" d="M288.64,25.1l-.29,0-20.92-2.3a2.68,2.68,0,0,1-1.82-4.32L277.17,3.71a2.68,2.68,0,0,1,2.11-1h.22a2.68,2.68,0,0,1,2.13,1.38L291,21.13a2.68,2.68,0,0,1-2.35,4Z"/><path class="cls-1" d="M235.94,37.77a2.68,2.68,0,0,1-2.68-2.59l-.63-18.74a2.68,2.68,0,0,1,3.65-2.59l18.13,7.05a2.68,2.68,0,0,1,.52,4.73L237.43,37.32A2.68,2.68,0,0,1,235.94,37.77Z"/><path class="cls-1" d="M243.39,133.51a2.68,2.68,0,0,1-2.65-2.27l-3-19.23a2.68,2.68,0,0,1,3.83-2.81l18.88,9.32a2.68,2.68,0,0,1,.23,4.68l-15.92,9.91A2.68,2.68,0,0,1,243.39,133.51Z"/><path class="cls-1" d="M288.47,138.22a2.68,2.68,0,0,1-1.77-.66l-14.63-12.83a2.68,2.68,0,0,1,1.13-4.62l20.45-5a2.68,2.68,0,0,1,3.18,3.43L291,136.37a2.68,2.68,0,0,1-2.55,1.85Z"/><path class="cls-1" d="M306.52,112.42a2.68,2.68,0,0,1-2.1-4.26l12.45-17A2.68,2.68,0,0,1,319,90.09l.34,0a2.68,2.68,0,0,1,2.15,1.66l7,17.4a2.68,2.68,0,0,1-2.49,3.68Z"/><path class="cls-1" d="M323.32,81.45a2.68,2.68,0,0,1-2.67-2.51l-1.37-21a2.68,2.68,0,0,1,3.94-2.54l16.54,8.83a2.68,2.68,0,0,1,.42,4.45L325,80.86A2.68,2.68,0,0,1,323.32,81.45Z"/><path class="cls-1" d="M316.23,47a2.68,2.68,0,0,1-1.94-.83L299.75,30.92a2.68,2.68,0,0,1,1.38-4.47l18.35-3.87a2.68,2.68,0,0,1,3.18,3.15l-3.8,19.08A2.68,2.68,0,0,1,316.23,47Z"/><path class="cls-2" d="M53.25,94.61l-.9,12.26a63.86,63.86,0,0,1-14.92,1.81q-18.28,0-27.85-10.1A34.38,34.38,0,0,1,0,74,37.34,37.34,0,0,1,10.16,48Q20.32,36.88,38,36.88a49.45,49.45,0,0,1,12.31,1.49L48.45,50.69a39.25,39.25,0,0,0-12-2q-10.82,0-16.1,6.85A26.5,26.5,0,0,0,15,72.17,26,26,0,0,0,21.3,89.54q6.27,7.36,17.57,7.36A51.28,51.28,0,0,0,53.25,94.61Z"/><path class="cls-2" d="M110.93,107.21H96.81q.69-10,.69-24.25,0-8.37-.42-16.9h-6q-1.18,4.86-2.88,9.78a101.8,101.8,0,0,1-3.86,9.57,84.66,84.66,0,0,1-4.66,8.69,46.69,46.69,0,0,1-5.34,7.11,26.81,26.81,0,0,1-5.89,4.91,13.38,13.38,0,0,1-6.26,2l-.53-12.79a7.07,7.07,0,0,0,3.31-1.92A27.8,27.8,0,0,0,68.69,89a63.76,63.76,0,0,0,3.92-6.37q2-3.62,3.84-7.84T79.94,66q1.63-4.64,2.91-9.38h18.33l9.7-1.06q-.69,10.34-.69,26.38Q110.19,95.6,110.93,107.21Z"/><path class="cls-2" d="M172.12,80.6q0,13.44-8.26,21a27.85,27.85,0,0,1-19.45,7.57,26.29,26.29,0,0,1-18.28-6.9q-7.62-6.9-7.62-19.43,0-13.49,8.32-21.11a28,28,0,0,1,19.51-7.62,26,26,0,0,1,18.2,7Q172.12,68,172.12,80.6ZM158.2,82.2a22.32,22.32,0,0,0-3.62-13Q151,64,145.15,64a10.89,10.89,0,0,0-9.2,4.9,20.41,20.41,0,0,0-3.54,12.26,22.27,22.27,0,0,0,3.63,13q3.62,5.25,9.43,5.25a10.88,10.88,0,0,0,9.2-4.9A20.41,20.41,0,0,0,158.2,82.2Z"/><path class="cls-2" d="M228.47,91.85q0,8.21-6.82,11.78t-16.9,3.57q-4.69,0-12.48-.16t-9.65-.16q.7-9.33.7-25.37a154.73,154.73,0,0,0-1.81-25.27h9.43q7.46-.59,16.25-.59,18.92,0,18.92,11.57,0,8.16-8.52,11.62v.8Q228.47,81.72,228.47,91.85Zm-14.6-21.64q0-6.13-9.49-6.13-4.48,0-9.22.37.38,6.45.37,12.53,5,.21,8.48.21Q213.86,77.19,213.87,70.21Zm1.91,21.32a5.44,5.44,0,0,0-3.11-5.39q-3.12-1.49-9.84-1.49-3.15,0-7.3.32,0,7.73.16,13.06,4.85.48,9.7.48Q215.78,98.51,215.78,91.53Z"/><path class="cls-2" d="M393.46,107.2H379.28q.69-11,.69-25.32,0-7.51-.1-15.77H361.69q-.11,6.83-.11,15.77,0,13.71.7,25.32H348.1q.75-11,.75-25.32A145.45,145.45,0,0,0,347,57l14.87-.48h21.21l10.34-1.06q-.64,10.34-.64,26.38Q392.76,95.59,393.46,107.2Z"/><path class="cls-2" d="M453,107.2H439q.69-9.43.69-21.16,0-4.74.59-11.78h-.8q-1.39,4-12.69,17.16-10.44,12.16-10.44,15.78h-11q.69-11.62.69-25.32,0-15.4-1.82-24.83L419.3,55.5q-.63,10.23-.64,20.36,0,5.33-.58,13.7h.8q1-3.36,12.1-16.63Q441.42,60.4,441.42,57L453,55.5q-.64,10.23-.64,26.38Q452.35,94.68,453,107.2Z"/><path class="cls-2" d="M505.47,95.61l-.91,10.18q-4.85,2.56-13.16,2.56-13.75,0-21.13-7.67a25.65,25.65,0,0,1-7.39-18.44,27.83,27.83,0,0,1,7.73-19.54q7.72-8.34,21.16-8.34a41.67,41.67,0,0,1,11.67,1.5l-1.81,10.87a28.56,28.56,0,0,0-11-2,12.46,12.46,0,0,0-10.18,4.56,17.13,17.13,0,0,0-3.73,11.22,17.88,17.88,0,0,0,4.43,12.26q4.43,5,12.52,5A42,42,0,0,0,505.47,95.61Z"/><path class="cls-2" d="M273.74,110A38.36,38.36,0,1,1,312.1,71.6,38.4,38.4,0,0,1,273.74,110Zm0-63.43A25.08,25.08,0,1,0,298.82,71.6,25.1,25.1,0,0,0,273.74,46.52Z"/><path class="cls-2" d="M267.4,62.83l15.93,9.89L267.4,83.88v-21m0-5.36A5.36,5.36,0,0,0,262,62.83v21a5.36,5.36,0,0,0,8.43,4.39l15.93-11.16a5.36,5.36,0,0,0-.25-8.94l-15.93-9.89a5.36,5.36,0,0,0-2.83-.81Z"/><path class="cls-2" d="M279.28,5.36l9.36,17.06-20.92-2.3L279.28,5.36m0-5.36a5.36,5.36,0,0,0-4.22,2.05L263.5,16.81a5.36,5.36,0,0,0,3.63,8.63l20.92,2.3a5.36,5.36,0,0,0,5.28-7.9L284,2.78A5.36,5.36,0,0,0,279.72,0l-.44,0Z"/><path class="cls-2" d="M235.31,16.35l18.13,7.05L235.94,35.09l-.63-18.74m0-5.36A5.36,5.36,0,0,0,230,16.53l.63,18.74a5.36,5.36,0,0,0,8.33,4.28l17.51-11.69a5.36,5.36,0,0,0-1-9.45l-18.13-7.05a5.36,5.36,0,0,0-1.94-.36Z"/><path class="cls-2" d="M240.43,111.6l18.88,9.32-15.92,9.91-3-19.23m0-5.36a5.36,5.36,0,0,0-5.3,6.17l3,19.23a5.36,5.36,0,0,0,8.13,3.73l15.92-9.91a5.36,5.36,0,0,0-.46-9.36l-18.88-9.32a5.35,5.35,0,0,0-2.37-.55Z"/><path class="cls-2" d="M294.29,117.71h0m0,0-5.82,17.83-14.63-12.83,20.45-5m0-5.36H294a5.35,5.35,0,0,0-1.1.17l-20.33,5a5.36,5.36,0,0,0-2.26,9.24l14.63,12.83a5.36,5.36,0,0,0,8.63-2.37l5.77-17.66a5.36,5.36,0,0,0-4.89-7.19Z"/><path class="cls-2" d="M319,92.77l7,17.4-19.45-.43,12.45-17m0-5.36a5.36,5.36,0,0,0-4.32,2.19l-12.45,17a5.36,5.36,0,0,0,4.2,8.53l19.45.43H326a5.36,5.36,0,0,0,5-7.36l-7-17.4a5.36,5.36,0,0,0-5-3.36Z"/><path class="cls-2" d="M321.95,57.77l16.54,8.83L323.32,78.77l-1.37-21m0-5.36a5.36,5.36,0,0,0-5.35,5.71l1.37,21a5.36,5.36,0,0,0,8.7,3.83l15.17-12.18a5.36,5.36,0,0,0-.83-8.91L324.47,53a5.36,5.36,0,0,0-2.52-.63Z"/><path class="cls-2" d="M320,25.2h0m0,0-3.8,19.08L301.68,29.07,320,25.2m0-5.36h-.23a5.36,5.36,0,0,0-1,.13l-18.24,3.85a5.36,5.36,0,0,0-2.77,8.95L312.36,48a5.36,5.36,0,0,0,9.13-2.66l3.76-18.91a5.36,5.36,0,0,0-5.11-6.57Z"/></g></g></svg>