<svg xmlns="http://www.w3.org/2000/svg" viewBox="0 0 272.36 265.34"><defs><style>.cls-1{fill:#291728;}.cls-2{fill:#c2990c;}.cls-3{fill:#c1b710;}.cls-4{fill:#a9970a;}.cls-5{fill:#806c0a;}.cls-6{fill:#0c030f;}.cls-7{fill:#1c0218;}.cls-8{fill:#100312;}.cls-9{fill:#0a030d;}</style></defs><title>Ресурс 2</title><g id="Шар_2" data-name="Шар 2"><g id="Слой_1" data-name="Слой 1"><path class="cls-1" d="M166.73,47.24c11.05,33.78,5,47.76-18.61,52-46.53,8.35-66.39-36.61-29.49-73,19.19-18.91,18.31-21,18.31-21S159,23.52,166.73,47.24Z"/><path class="cls-1" d="M95.05,55.49c33,13.25,39.77,26.89,27.86,47.68C99.4,144.18,52.19,130.49,48,78.85,45.89,52,43.73,51.32,43.73,51.32S71.9,46.19,95.05,55.49Z"/><path class="cls-1" d="M55.3,115.71C86.64,99,101.46,102.53,109.73,125,126,169.39,85.2,196.75,43,166.73c-22-15.61-23.87-14.38-23.87-14.38S33.29,127.47,55.3,115.71Z"/><path class="cls-1" d="M75.87,184.88C83.19,150.09,95.45,141,118,149.16c44.47,16,39.19,64.9-11,77.95-26.07,6.78-26.36,9-26.36,9S70.73,209.29,75.87,184.88Z"/><path class="cls-1" d="M142.08,213.57c-21.94-28-21-43.18-.29-55.22,40.87-23.76,74.91,11.7,52.67,58.5-11.56,24.33-10,26-10,26S157.48,233.2,142.08,213.57Z"/><path class="cls-1" d="M206.62,181.3C171.09,180.13,160,169.63,164.13,146c8.06-46.58,57.11-49.86,78.67-2.75,11.21,24.5,13.48,24.39,13.48,24.39S231.56,182.12,206.62,181.3Z"/><path class="cls-1" d="M223.38,111.11C199.65,137.57,184.51,139.29,169,121c-30.5-36.12-1.49-75.8,48.46-62,26,7.16,27.35,5.35,27.35,5.35S240,92.53,223.38,111.11Z"/><path class="cls-1" d="M202,62.09c-4.17,38.7-16.53,49.91-42,43.53-50.21-12.6-49.8-66.42,3.4-86.13C191.13,9.24,191.2,6.76,191.2,6.76S205,34.93,202,62.09Z"/><path class="cls-1" d="M126.77,38.08c27,28.07,27.61,44.74,6.36,60.13-41.92,30.37-82.89-4.54-63.79-58,9.93-27.78,8.07-29.43,8.07-29.43S107.84,18.38,126.77,38.08Z"/><path class="cls-1" d="M60,80.31c38.83-2.62,52,7.61,50.15,33.78-3.69,51.63-56.76,60.58-85.41,11.61C9.83,100.23,7.37,100.6,7.37,100.6S32.72,82.15,60,80.31Z"/><path class="cls-1" d="M49.41,158.62c23-31.43,39.27-35,58.11-16.71,37.18,36,9.92,82.42-46,72.89-29.08-5-30.38-2.84-30.38-2.84S33.29,180.68,49.41,158.62Z"/><path class="cls-1" d="M102.59,217.05c-9.32-37.79-1.54-52.55,24.56-55.26,51.49-5.34,69.52,45.38,26.26,82.1-22.49,19.09-21.7,21.45-21.7,21.45S109.14,243.58,102.59,217.05Z"/><path class="cls-1" d="M181.55,213.87c-34.94-17.15-41.25-32.6-26.55-54.33,29-42.87,79.45-24.08,79.77,32.65.17,29.5,2.48,30.41,2.48,30.41S206.07,225.91,181.55,213.87Z"/><path class="cls-1" d="M229.86,151.34c-35.6,15.74-51.49,10.64-58.68-14.59C157,87,203.79,60.41,247.47,96.64c22.71,18.83,24.89,17.65,24.89,17.65S254.85,140.29,229.86,151.34Z"/><path class="cls-2" d="M147.83,49.7c11.05,33.78,5,47.76-18.61,52C82.69,110,62.83,65.08,99.73,28.7,118.92,9.79,118,7.7,118,7.7S140.07,26,147.83,49.7Z"/><path class="cls-2" d="M76.15,58c33,13.25,39.77,26.89,27.86,47.68C80.5,146.64,33.29,133,29.15,81.3,27,54.45,24.82,53.78,24.82,53.78S53,48.65,76.15,58Z"/><path class="cls-2" d="M36.39,118.17c31.35-16.75,46.17-13.18,54.43,9.3,16.31,44.37-24.53,71.74-66.75,41.71C2.11,153.58.2,154.8.2,154.8S14.38,129.93,36.39,118.17Z"/><path class="cls-2" d="M57,187.33c7.32-34.78,19.58-43.84,42.11-35.72,44.47,16,39.19,64.9-11,77.95-26.07,6.78-26.36,9-26.36,9S51.83,211.75,57,187.33Z"/><path class="cls-2" d="M123.18,216c-21.94-28-21-43.18-.29-55.22,40.87-23.76,74.91,11.7,52.67,58.5-11.56,24.33-10,26-10,26S138.58,235.66,123.18,216Z"/><path class="cls-2" d="M187.71,183.75c-35.52-1.17-46.57-11.67-42.49-35.27,8.06-46.58,57.11-49.86,78.67-2.75,11.21,24.5,13.48,24.39,13.48,24.39S212.65,184.57,187.71,183.75Z"/><path class="cls-2" d="M204.48,113.57c-23.73,26.46-38.87,28.18-54.33,9.87-30.5-36.12-1.49-75.8,48.46-62,26,7.16,27.35,5.35,27.35,5.35S221.14,95,204.48,113.57Z"/><path class="cls-3" d="M194.67,55.33c-4.17,38.7-16.53,49.91-42,43.53-50.21-12.6-49.8-66.42,3.4-86.13C183.76,2.48,183.83,0,183.83,0S197.6,28.17,194.67,55.33Z"/><path class="cls-3" d="M119.39,31.32c27,28.07,27.61,44.74,6.36,60.13-41.92,30.37-82.89-4.54-63.79-58C71.9,5.71,70,4.06,70,4.06S100.46,11.62,119.39,31.32Z"/><path class="cls-3" d="M52.61,73.55c38.83-2.62,52,7.61,50.15,33.78C99.08,159,46,167.91,17.35,118.94,2.46,93.47,0,93.84,0,93.84S25.35,75.39,52.61,73.55Z"/><path class="cls-3" d="M42,151.86c23-31.43,39.27-35,58.11-16.71,37.18,36,9.92,82.42-46,72.89-29.08-5-30.38-2.84-30.38-2.84S25.92,173.92,42,151.86Z"/><path class="cls-3" d="M95.22,210.29C85.9,172.5,93.68,157.74,119.78,155c51.49-5.34,69.52,45.38,26.26,82.1-22.49,19.09-21.7,21.45-21.7,21.45S101.76,236.82,95.22,210.29Z"/><path class="cls-3" d="M174.17,207.11c-34.94-17.15-41.25-32.6-26.55-54.33,29-42.87,79.45-24.08,79.77,32.65.17,29.5,2.48,30.41,2.48,30.41S198.7,219.15,174.17,207.11Z"/><path class="cls-3" d="M222.48,144.58C186.89,160.32,171,155.23,163.8,130c-14.2-49.78,32.62-76.34,76.29-40.12C262.8,108.71,265,107.53,265,107.53S247.47,133.54,222.48,144.58Z"/><path class="cls-4" d="M160,69.2c6.17,27.31.37,37.82-18.44,39.4C104.48,111.72,92.22,75,123.85,49.18c16.44-13.42,15.91-15.12,15.91-15.12S155.69,50,160,69.2Z"/><path class="cls-4" d="M103.19,70.38c24.89,12.83,29.21,24,18.33,39.45C100.06,140.26,64,126,64.6,85.23c.29-21.22-1.36-21.91-1.36-21.91S85.71,61.38,103.19,70.38Z"/><path class="cls-4" d="M67.56,114.68c25.82-10.82,37.18-6.93,42,11.31,9.51,36-24.53,54.46-55.44,27.79-16.07-13.86-17.66-13-17.66-13S49.43,122.28,67.56,114.68Z"/><path class="cls-4" d="M78.6,170.44c8.31-26.74,18.59-32.94,35.67-24.91,33.7,15.86,25.95,53.8-14.35,60.33C79,209.27,78.58,211,78.58,211S72.76,189.22,78.6,170.44Z"/><path class="cls-4" d="M128.41,197.84c-15.14-23.55-13.28-35.42,3.85-43.33,33.81-15.62,57.89,14.7,37,49.77-10.86,18.23-9.78,19.65-9.78,19.65S139,214.37,128.41,197.84Z"/><path class="cls-4" d="M181.41,177.29c-27.78-3.54-35.67-12.59-30.72-30.8,9.76-35.94,48.47-34.89,61.91,3.65,7,20,8.77,20.13,8.77,20.13S200.91,179.77,181.41,177.29Z"/><path class="cls-4" d="M199.74,123.47c-20.57,19-32.57,19.23-43.34,3.73C135.14,96.63,160.82,67.65,199,82.14,218.83,89.67,220,88.35,220,88.35S214.18,110.13,199.74,123.47Z"/><path class="cls-5" d="M149.84,88.78c4.15,18.37.25,25.44-12.4,26.5-25,2.1-33.2-22.61-11.93-40,11.06-9,10.7-10.17,10.7-10.17S146.92,75.88,149.84,88.78Z"/><path class="cls-5" d="M111.62,89.57c16.74,8.63,19.65,16.16,12.33,26.53C109.51,136.57,85.29,127,85.66,99.56c.2-14.27-.91-14.74-.91-14.74S99.86,83.52,111.62,89.57Z"/><path class="cls-5" d="M87.66,119.37c17.37-7.28,25-4.66,28.25,7.61,6.4,24.21-16.5,36.62-37.28,18.69-10.81-9.32-11.87-8.77-11.87-8.77S75.46,124.48,87.66,119.37Z"/><path class="cls-5" d="M95.08,156.87c5.59-18,12.5-22.15,24-16.75,22.66,10.66,17.45,36.18-9.65,40.57-14.09,2.28-14.35,3.46-14.35,3.46S91.15,169.49,95.08,156.87Z"/><path class="cls-5" d="M128.58,175.29c-10.18-15.84-8.93-23.82,2.59-29.14C153.9,135.64,170.1,156,156,179.62c-7.31,12.26-6.58,13.22-6.58,13.22S135.73,186.41,128.58,175.29Z"/><path class="cls-5" d="M164.22,161.47c-18.68-2.38-24-8.47-20.66-20.71,6.57-24.17,32.6-23.47,41.63,2.46,4.7,13.48,5.9,13.53,5.9,13.53S177.34,163.14,164.22,161.47Z"/><path class="cls-5" d="M176.55,125.28c-13.83,12.78-21.9,12.93-29.15,2.51-14.29-20.57,3-40.06,28.64-30.31,13.34,5.07,14.16,4.18,14.16,4.18S186.26,116.31,176.55,125.28Z"/><circle class="cls-6" cx="136.26" cy="101.72" r="2.29" transform="translate(19.08 224.94) rotate(-83.18)"/><circle class="cls-7" cx="135.19" cy="132.8" r="54.37" transform="translate(-12.72 251.27) rotate(-83.18)"/><circle class="cls-8" cx="136.81" cy="132.8" r="46.89" transform="translate(-11.29 252.88) rotate(-83.18)"/><circle class="cls-9" cx="135.19" cy="132.8" r="33.73" transform="translate(-12.72 251.27) rotate(-83.18)"/><polygon class="cls-7" points="155.96 130.51 126.44 112.2 126.44 151.19 155.96 130.51"/><path class="cls-2" d="M158.27,126.56l-29.52-18.32a4.61,4.61,0,0,0-6.88,4v39c0,3.25,4,6,6.88,4l29.52-20.68c4.79-3.35.22-11.29-4.62-7.9l-29.52,20.68,6.88,4v-39l-6.88,4,29.52,18.32C158.67,137.58,163.27,129.67,158.27,126.56Z"/></g></g></svg>